<?xml version="1.0" encoding="UTF-8" standalone="no"?>
<!-- Created with Inkscape (http://www.inkscape.org/) -->

<svg
   version="1.1"
   id="svg1"
   width="937.33331"
   height="906.66669"
   viewBox="0 0 937.33331 906.66669"
   sodipodi:docname="Screenshot from 2024-01-13 14-29-58.png"
   xml:space="preserve"
   inkscape:export-filename="../../Documents/Shield/Logo.svg"
   inkscape:export-xdpi="96"
   inkscape:export-ydpi="96"
   xmlns:inkscape="http://www.inkscape.org/namespaces/inkscape"
   xmlns:sodipodi="http://sodipodi.sourceforge.net/DTD/sodipodi-0.dtd"
   xmlns="http://www.w3.org/2000/svg"
   xmlns:svg="http://www.w3.org/2000/svg"><defs
     id="defs1" /><sodipodi:namedview
     id="namedview1"
     pagecolor="#ffffff"
     bordercolor="#000000"
     borderopacity="0.25"
     inkscape:showpageshadow="2"
     inkscape:pageopacity="0.0"
     inkscape:pagecheckerboard="0"
     inkscape:deskcolor="#d1d1d1"
     inkscape:zoom="0.5201157"
     inkscape:cx="117.2816"
     inkscape:cy="606.5958"
     inkscape:window-width="1920"
     inkscape:window-height="1011"
     inkscape:window-x="0"
     inkscape:window-y="32"
     inkscape:window-maximized="0"
     inkscape:current-layer="g1" /><g
     inkscape:groupmode="layer"
     id="layer1"
     inkscape:label="TEXT"><g
       id="g19"
       transform="matrix(0.67418024,0,0,0.67418024,152.70086,76.862474)"
       style="display:inline"><path
         style="display:inline;fill:#f6f585;fill-opacity:1"
         d="m 468.55342,365.7921 c 21.80254,-18.97747 0.1961,-86.71457 0.1961,-86.71457 -40.25745,49.29324 -83.37884,54.08292 -149.1462,66.32098 0,0 111.15046,53.29532 148.9501,20.39359 z"
         id="path19"
         sodipodi:nodetypes="sccs" /><path
         style="fill:#e6d600;fill-opacity:1"
         d="m 325.30006,309.24473 c 15.62404,-8.21903 28.55924,-17.87948 44.30792,-33.09066 8.26397,-7.98193 15.02541,-14.90966 15.02541,-15.39496 0,-0.48529 -5.79409,-0.62894 -12.87575,-0.31921 l -12.87575,0.56314 13.60018,-13.05378 c 21.3462,-20.48859 33.3681,-38.10672 46.13265,-67.6075 4.0436,-9.34536 7.352,-17.51214 7.352,-18.14839 0,-0.63625 -5.25,-1.46502 -11.66667,-1.84171 -11.79825,-0.69262 -31.12861,-6.01685 -34.75806,-9.57354 -1.44283,-1.4139 -0.43588,-1.87821 5.61577,-2.58947 14.45782,-1.69923 42.32543,-12.71971 40.94976,-16.19392 -0.28922,-0.73043 -3.19499,-2.34124 -6.45725,-3.57957 -6.46382,-2.45362 -16.21622,-9.52347 -20.30183,-14.71747 l -2.58035,-3.28038 23.26598,0.64 23.26598,0.64 v -9.51532 c 0,-5.233426 0.48775,-9.515326 1.08388,-9.515326 0.59614,0 2.78187,1.77233 4.85716,3.9385 5.3317,5.565006 11.5974,8.179806 22.9904,9.594246 16.0253,1.98955 23.7203,5.58998 34.2286,16.01525 5.0552,5.01527 10.342,9.11868 11.7485,9.11868 6.2664,0 14.8308,6.29366 18.5916,13.6624 2.7816,5.45008 5.0026,17.72243 3.0391,16.79282 -21.5473,-10.20133 -36.715,-10.13241 -51.0225,0.23185 -6.5379,4.73606 -16.1834,18.86589 -16.1834,23.70736 0,3.08276 0.366,2.8985 5.2388,-2.63721 5.5899,-6.35055 17.7604,-13.55234 25.4279,-15.04676 2.5666,-0.50025 5.6404,-1.18098 6.8305,-1.51273 1.6047,-0.44732 2.9548,1.38716 5.225,7.09955 5.4147,13.62441 16.0314,34.07189 23.4679,45.19847 8.0992,12.11816 23.9951,29.76178 32.2875,35.83758 3.0027,2.2 5.4735,4.52339 5.4909,5.16309 0.017,0.63971 -5.3685,0.90492 -11.9685,0.58937 -6.6,-0.31555 -12,-0.34889 -12,-0.0741 0,1.65515 14.0702,16.31537 22.8678,23.82667 11.6604,9.95565 19.866,15.72764 34.4655,24.24382 l 10,5.8332 -10,-0.85186 c -17.1407,-1.46016 -41.8388,-5.84666 -53.4942,-9.5008 -29.9866,-9.40131 -53.0955,-27.92653 -78.0428,-62.56273 -4.7537,-6.6 -9.1607,-12 -9.7932,-12 -0.6325,0 -5.7117,6.1914 -11.2873,13.75866 -18.03969,24.48404 -39.08591,44.01394 -57.38247,53.24827 -15.60407,7.87542 -45.81683,14.87666 -73.33333,16.99363 l -10.66667,0.82064 z"
         id="path17" /><path
         style="fill:#e6d600;fill-opacity:1"
         d="m 45.645686,512.33334 c 2.65227,-11.67131 2.50946,-49.49481 -0.29828,-79 -2.73518,-28.7426 -3.06018,-57.02645 -0.78137,-68 3.68669,-17.75317 12.58647,-30.9561 40.89395,-60.66667 31.754424,-33.32836 41.122384,-46.51124 53.346284,-75.07057 5.02892,-11.74932 4.98662,-11.59609 3.20143,-11.59609 -0.7108,0 -3.4957,3.45 -6.18868,7.66666 -12.32771,19.30279 -53.987474,66.51596 -72.758804,82.45783 -13.05284,11.08535 -33.24508,20.54217 -43.86171,20.54217 h -4.18568 l 7.72307,-8.33333 c 21.85841,-23.58562 32.85152,-43.27717 49.31342,-88.33333 7.21141,-19.73761 13.52259,-30.9199 22.58407,-40.01497 4.4,-4.41631 20.440704,-16.64196 35.646004,-27.16812 15.20529,-10.52615 27.37104,-19.58335 27.03498,-20.1271 -0.33606,-0.54374 -6.47675,0.96035 -13.64599,3.34243 -14.52583,4.82641 -31.07112,8.83483 -30.96743,7.50246 0.0371,-0.47742 6.48667,-5.66804 14.33226,-11.53471 48.09823,-35.96623 94.13039,-82.110896 117.71231,-117.999996 14.66319,-22.3157805 13.49027,-22.3492605 12.6257,0.36033 -2.83944,74.583456 -30.13496,148.503746 -79.13392,214.306336 -19.20261,25.78794 -59.1708,63.60834 -78.926134,74.68485 -1.09389,0.61333 -1.55828,1.54576 -1.03197,2.07207 1.743704,1.7437 20.896514,-6.26765 32.699184,-13.67759 19.01592,-11.93857 35.18491,-26.91242 52.6735,-48.78014 5.14672,-6.43544 9.55637,-11.50211 9.79922,-11.25926 0.24286,0.24286 -0.4238,7.30822 -1.48147,15.70082 -1.05766,8.39259 -2.85843,30.55925 -4.0017,49.25925 -2.38241,38.96801 -4.68582,57.04249 -9.41343,73.86568 -3.26459,11.61704 -14.44557,35.46766 -16.62696,35.46766 -1.33313,0 -5.72123,-11.44965 -8.50002,-22.17866 -3.29792,-12.73336 -5.10458,-32.53344 -4.59996,-50.41329 0.25987,-9.20811 0.0363,-16.74188 -0.49676,-16.74171 -1.55666,5.2e-4 -4.61916,5.49519 -6.92257,12.42036 -1.17447,3.53102 -2.76016,14.03102 -3.52375,23.33333 -1.62643,19.81364 -3.85458,29.72507 -9.31553,41.43792 -5.62565,12.06613 -13.91819,23.04884 -27.28918,36.14205 l -11.573784,11.33333 0.85095,-16 c 2.4861,-46.74515 4.89605,-66.32477 9.528074,-77.41076 5.18199,-12.40225 -5.106154,-2.79318 -11.622494,10.85535 -4.72304,9.89245 -7.04913,21.58624 -9.81306,49.33255 -2.31537,23.24327 -5.95243,43.06489 -10.22418,55.72072 -5.79721,17.17527 -20.47511,44.83548 -23.79196,44.83548 -0.48474,0 -0.0292,-3.75 1.01237,-8.33334 z"
         id="path15" /><path
         style="fill:#e6d600;fill-opacity:1"
         d="m 888.99899,517.35528 c -5.9345,-7.19956 -14.438,-24.09082 -19.031,-37.80284 -6.0825,-18.15893 -8.8461,-32.35388 -11.9836,-61.55243 -1.5366,-14.3 -4.0485,-30.70044 -5.582,-36.44543 -2.7995,-10.48722 -11.1137,-25.17283 -15.1226,-26.71118 -2.5141,-0.96475 -2.4906,0.27486 0.1237,6.53175 3.7721,9.02798 5.8289,24.11907 7.847,57.57585 1.0913,18.09072 1.747,33.12931 1.4573,33.41909 -1.3345,1.33441 -25.1228,-24.20574 -31.1618,-33.4565 -10.936,-16.75229 -13.9155,-26.47854 -16.1955,-52.86822 -0.7899,-9.14171 -2.0869,-19.03834 -2.8824,-21.9925 -1.7024,-6.32215 -6.1386,-15.38719 -7.5285,-15.38388 -0.5351,10e-4 -1.0217,10.65127 -1.0814,23.66666 -0.076,16.51536 -0.8009,27.22813 -2.4006,35.46101 -2.4021,12.36193 -6.2391,23.98178 -9.3026,28.17137 -1.6647,2.2766 -2.2179,1.74561 -6.8954,-6.61857 -11.0529,-19.76439 -16.6082,-44.05521 -19.2145,-84.01612 -3.3488,-51.34565 -4.2639,-63.09364 -5.5906,-71.77014 -0.7655,-5.00692 -1.1435,-9.35193 -0.8398,-9.6556 0.3037,-0.30367 4.4071,4.39289 9.1187,10.43681 18.1748,23.31388 42.9416,45.05556 62.5667,54.92438 9.6798,4.86769 22.4664,9.37589 23.542,8.30028 0.3865,-0.38645 -1.9024,-2.38284 -5.0864,-4.43643 -14.7383,-9.50593 -28.5017,-20.96239 -44.4756,-37.02081 -54.9112,-55.20173 -94.9239,-135.05962 -106.6125,-212.778496 -2.1665,-14.4054 -4.3919,-56.0000005 -2.9961,-56.0000005 0.4306,0 3.8373,5.0567105 7.5705,11.2371305 17.033,28.199 49.8073,64.51335 88.0581,97.569456 13.7609,11.89215 43.3524,35.28566 47.7409,37.74163 1.2303,0.68848 1.9085,1.58012 1.5072,1.98143 -0.958,0.95801 -27.9064,-6.15414 -37.0882,-9.78822 -7.3732,-2.9183 -10.134,-2.72731 -6.7472,0.46678 1.0563,0.99625 10.9206,7.98987 21.9206,15.54138 39.9357,27.41586 45.3343,32.51469 54.6664,51.63028 2.4041,4.92441 6.6117,15.25347 9.3503,22.95347 14.3588,40.37204 25.7142,60.64516 45.6655,81.5279 l 10.0049,10.4721 h -4.2751 c -7.1276,0 -24.0851,-6.47148 -34.0278,-12.98606 -17.5098,-11.47254 -61.5488,-58.9388 -80.3141,-86.56427 -7.48,-11.01185 -10.713,-13.90796 -9.0605,-8.11633 2.2378,7.84223 17.2737,36.23954 24.7176,46.68227 4.5801,6.42524 18.8316,22.92524 31.6699,36.66666 24.1144,25.81058 33.967,38.92526 39.0969,52.04139 4.2664,10.90846 4.9496,40.63179 1.6945,73.72577 -3.0862,31.37651 -3.2294,71.8187 -0.2959,83.55058 1.1461,4.58333 1.9077,8.33333 1.6926,8.33333 -0.2151,0 -2.1139,-2.09013 -4.2196,-4.64473 z"
         id="path14" /><path
         style="fill:#e6d600;fill-opacity:1"
         d="m 663.33629,407.74537 0.036,-121.0787 10.6899,-5.06029 c 17.2901,-8.18462 35.2468,-26.92823 46.6638,-48.70865 2.916,-5.56287 4.7184,-7.78333 5.3712,-6.61687 1.6037,2.86572 6.3333,29.99434 7.8209,44.86042 1.7827,17.81424 1.7702,67.15379 -0.022,86.85873 -1.6,17.59319 -5.2891,40.50684 -9.3531,58.09406 l -2.8076,12.14983 -11.5512,4.71183 -11.5511,4.71182 -0.3993,-15.50044 c -0.3635,-14.11272 0.996,-36.23346 3.2266,-52.50043 1.236,-9.01339 -1.0226,-7.98003 -5.8284,2.66666 -8.3134,18.41733 -9.569,25.67583 -11.0136,63.66667 -1.1354,29.85977 -3.2347,47.05928 -7.5638,61.97017 -2.6885,9.25995 -10.977,29.1371 -12.557,30.11355 -0.705,0.43573 -1.1829,-49.07651 -1.1616,-120.33836 z"
         id="path13" /><path
         style="fill:#e6d600;fill-opacity:1"
         d="m 267.21942,518.33335 c -10.46577,-24.97906 -13.21067,-39.99251 -14.56541,-79.66667 -1.1972,-35.06069 -3.04501,-47.27462 -9.48068,-62.66667 -7.30164,-17.46319 -8.85716,-17.0873 -6.62246,1.60029 0.85938,7.18651 1.92305,23.73709 2.3637,36.77907 l 0.8012,23.71269 -3.20786,-1.22087 c -5.14508,-1.95816 -20.50427,-8.45058 -20.93463,-8.8492 -0.83956,-0.77764 -5.76242,-23.03826 -8.22045,-37.17193 -1.42044,-8.16753 -3.26976,-22.65005 -4.10962,-32.18339 -1.96734,-22.33162 -1.9922,-70.68932 -0.0456,-88.66666 1.77098,-16.35531 6.6648,-43.77817 7.95483,-44.57545 0.49066,-0.30324 2.82344,3.15218 5.18396,7.67871 6.26513,12.01403 20.0501,30.00021 28.27839,36.89674 3.93725,3.3 11.86226,8.4 17.61112,11.33333 l 10.45249,5.33333 0.31082,121.00021 c 0.17095,66.55012 -0.0832,121.00012 -0.56476,121 -0.48157,-1.1e-4 -2.82384,-4.6502 -5.20506,-10.33353 z"
         id="path12" /><path
         style="fill:#e6d600;fill-opacity:1"
         d="m 807.98339,615.66125 c -18.9808,-18.7113 -30.0795,-39.648 -35.9224,-67.7646 -1.0786,-5.19013 -3.2039,-19.25175 -4.7229,-31.24803 -1.519,-11.99627 -3.6618,-25.69216 -4.7618,-30.43532 -2.2654,-9.76811 -6.5498,-20.21329 -8.2911,-20.21329 -0.6404,0 -2.1929,4.35 -3.4498,9.66667 -5.187,21.9411 -16.8523,44.51095 -30.6193,59.24215 -8.0645,8.62925 -24.0873,21.75782 -26.5544,21.75782 -0.7049,0 -0.8314,-1.8708 -0.2931,-4.3333 1.7369,-7.94539 22.7902,-70.75903 29.6068,-88.33334 8.5932,-22.15503 14.5694,-43.29185 18.2304,-64.47792 1.5954,-9.23239 3.2584,-16.20174 3.6956,-15.48745 0.4372,0.71429 1.5134,3.9987 2.3915,7.2987 2.8669,10.77323 10.4835,25.4382 19.5045,37.554 4.8674,6.53717 9.4833,11.67459 10.2576,11.41649 1.606,-0.53532 14.6961,-25.25047 16.0501,-30.30382 0.8102,-3.02371 1.3706,-2.43719 6.0338,6.31437 7.0486,13.22828 13.5476,21.31443 30.2888,37.68563 20.7754,20.31622 19.8661,17.26998 19.9001,66.66667 0.015,22.36667 0.5181,43.21667 1.1172,46.33337 1.4216,7.3957 0.001,7.2595 -8.2659,-0.793 -11.4935,-11.1949 -16.9735,-24.96096 -20.783,-52.20704 -2.246,-16.06378 -4.7329,-23.96076 -9.5236,-30.24177 -3.9194,-5.1386 -6.7014,-5.8966 -5.2296,-1.4249 0.543,1.65 1.4399,27 1.9931,56.33334 0.9825,52.09837 2.1605,67.12577 6.1483,78.42827 1.0325,2.9266 1.6733,5.525 1.424,5.7743 -0.2493,0.2493 -3.9505,-2.9943 -8.2249,-7.208 z"
         id="path11" /><path
         style="fill:#e6d600;fill-opacity:1"
         d="m 120.68913,623.21325 c -0.0308,-0.4327 1.15358,-5.516 2.63194,-11.2964 3.44435,-13.4673 5.27689,-43.6224 5.23574,-86.1562 -0.0175,-18.07606 0.29253,-34.41695 0.68893,-36.3131 0.39641,-1.89615 1.03217,-4.94754 1.41281,-6.78087 1.09545,-5.27621 -2.29844,-4.04781 -6.44663,2.33333 -4.57183,7.03281 -7.09142,15.66472 -8.87539,30.40628 -2.96353,24.4888 -9.21542,39.61096 -20.973654,50.73136 -3.96764,3.7525 -7.44233,6.5942 -7.72152,6.315 -0.27919,-0.2792 -0.0952,-6.1952 0.40875,-13.1468 0.504,-6.9515 0.59685,-22.23917 0.20633,-33.9725 -0.9248,-27.7862 0.29065,-43.82689 3.94727,-52.09329 1.99602,-4.51233 6.59713,-9.9574 15.377304,-18.19788 15.06253,-14.13668 23.99244,-25.10797 31.28214,-38.43324 4.92529,-9.00321 5.52193,-9.62743 6.31693,-6.60893 1.37516,5.22131 14.28485,29.72171 15.95406,30.27811 1.65278,0.55093 12.24162,-13.21162 19.5989,-25.47311 2.59448,-4.32392 6.40839,-13.15967 8.47534,-19.63499 2.06695,-6.47533 4.1306,-11.78758 4.58587,-11.805 0.45528,-0.0174 1.24176,3.71832 1.74772,8.30166 2.10833,19.0983 9.28633,45.77677 19.46172,72.33333 8.87251,23.15621 30.62945,89.16364 30.62945,92.92534 0,1.5254 -10.55488,-5.6235 -19.617,-13.28688 -17.38222,-14.69921 -36.09716,-48.70494 -39.90297,-72.50512 -0.45147,-2.82334 -1.33197,-5.13334 -1.95667,-5.13334 -1.78072,0 -6.11778,9.37913 -8.36048,18.07997 -1.12279,4.35602 -3.57224,19.40679 -5.44321,33.44617 -5.35377,40.1734 -11.32576,59.4171 -24.42581,78.7078 -5.07379,7.4715 -24.11761,28.6693 -24.23787,26.9793 z"
         id="path10" /><path
         style="fill:#e6d600;fill-opacity:1"
         d="m 568.03309,695.52435 c 0.6967,-0.6283 7.016,-5.4011 14.043,-10.6063 25.5473,-18.9242 46.3868,-38.8163 57.4042,-54.7946 3.3533,-4.8633 6.9867,-7.6325 17.656,-13.4568 41.513,-22.6613 70.5232,-53.1798 89.6711,-94.3333 3.1561,-6.78334 5.984,-12.33334 6.2841,-12.33334 0.3001,0 1.2469,5.85 2.1039,13 3.2546,27.15224 7.5273,44.14674 15.5872,61.99764 4.5395,10.054 4.7452,11.1431 4.3088,22.8153 -0.6588,17.6223 -5.2513,26.5875 -22.3306,43.592 -11.7173,11.666 -30.1971,26.3034 -31.528,24.9725 -0.304,-0.3041 1.4967,-4.4134 4.0018,-9.1318 6.6396,-12.5063 12.4847,-29.2399 14.749,-42.2244 2.1697,-12.4419 2.664,-31.0212 0.8253,-31.0212 -0.6367,0 -3.3531,3.75 -6.0365,8.3333 -10.6301,18.1566 -33.8522,41.1084 -56.042,55.3896 -23.2848,14.9859 -58.3959,28.8632 -89.8073,35.4953 -17.0409,3.598 -23.0592,4.2624 -20.89,2.3061 z"
         id="path9" /><path
         style="fill:#e6d600;fill-opacity:1"
         d="m 349.96647,693.84685 c -37.65741,-7.8203 -76.69579,-24.5004 -103.42385,-44.1904 -17.50009,-12.8919 -37.03117,-33.9115 -45.46842,-48.9336 -2.07592,-3.6961 -4.22439,-6.7207 -4.77439,-6.7215 -1.48521,0 -1.21048,20.9809 0.39393,30.0871 2.22438,12.625 7.8938,29.3238 14.05558,41.3995 3.13724,6.1483 5.25079,11.1787 4.69677,11.1787 -2.14376,0 -23.03416,-16.2396 -31.19019,-24.2464 -15.99967,-15.7069 -22.28942,-28.8226 -22.28942,-46.4791 0,-9.4619 0.59616,-12.0277 5.41537,-23.3074 6.90491,-16.1614 11.11349,-32.817 13.77371,-54.50971 1.16011,-9.4601 2.32248,-17.41337 2.58305,-17.67394 0.26057,-0.26057 3.87108,6.48354 8.02335,14.98691 10.96266,22.45024 21.78616,37.59664 39.48122,55.24994 16.18357,16.1454 31.64302,27.4342 51.48103,37.5923 7.01658,3.5929 11.81947,7.0046 13.23547,9.4016 9.71091,16.4393 40.51779,45.1639 71.40905,66.5826 l 3.26441,2.2634 -4,-0.025 c -2.2,-0.014 -9.7,-1.2085 -16.66667,-2.6553 z"
         id="path8" /><path
         style="fill:#e6d600;fill-opacity:1"
         d="m 476.65959,613.77785 c 0.016,-68.91857 0.5542,-117.4577 1.3651,-123.11117 4.8972,-34.14286 17.3744,-58.14743 39.8996,-76.76163 12.8224,-10.59612 24.2503,-16.63614 61.1232,-32.30569 l 11.081,-4.709 -0.5128,93.55483 c -0.487,88.84586 -0.6518,94.15886 -3.2737,105.55486 -3.4742,15.1005 -7.0998,24.7049 -13.0661,34.613 -2.5786,4.2822 -4.3156,8.1461 -3.8599,8.5864 1.7431,1.6845 17.5732,-17.3116 22.3063,-26.7676 9.8938,-19.7665 9.4794,-14.6125 9.926,-123.44144 l 0.4009,-97.67626 14.9586,-7.64302 c 8.2273,-4.20367 15.4087,-7.84935 15.9587,-8.10152 1.5923,-0.73007 1.2036,188.67538 -0.4176,203.48294 -3.6714,33.5327 -13.8059,54.5767 -36.7713,76.3546 -10.2446,9.7148 -24.815,21.1605 -72.9907,57.3375 -21.9155,16.4571 -41.2655,31.0221 -43,32.3666 l -3.1537,2.4445 z"
         id="path7" /><path
         style="fill:#e6d600;fill-opacity:1"
         d="m 456.42309,890.29715 c -6.0796,-4.97 -12.71242,-11.72 -14.73965,-15 -8.2525,-13.3526 -7.60749,-30.6861 1.86672,-50.1646 4.47043,-9.1909 5.61063,-13.1104 6.11923,-21.0342 0.4294,-6.6911 0.1284,-10.0454 -0.9619,-10.7192 -1.0034,-0.6201 -1.88275,0.1717 -2.39141,2.1534 -0.44246,1.7238 -3.19389,7.6341 -6.11427,13.1341 -2.92039,5.5 -8.84498,16.8711 -13.16576,25.269 -4.32078,8.398 -8.57897,16.1492 -9.46265,17.2249 -2.50077,3.0444 -16.91571,9.1359 -29.08204,12.2896 -11.64322,3.018 -30.8785,6.6404 -31.5731,5.9459 -0.22561,-0.2257 2.551,-2.584 6.17025,-5.2407 15.18713,-11.1484 28.01873,-27.7907 38.94451,-50.51 8.37975,-17.4251 8.54509,-20.3231 0.81252,-14.2407 -10.41482,8.1923 -37.6164,17.402 -57.10646,19.3347 -11.82134,1.1723 -13.27348,-0.048 -5.88305,-4.9431 19.72797,-13.0672 47.5979,-53.2822 58.31395,-84.1441 1.83389,-5.2815 3.76083,-8.7725 4.65325,-8.4302 2.13771,0.82 29.10767,21.6371 45.75676,35.3179 7.6706,6.3031 15.2895,12.5293 16.931,13.836 2.9562,2.3534 3.1272,2.2584 18.1016,-10.0563 8.3144,-6.8377 20.1954,-16.2636 26.4023,-20.9464 6.2068,-4.6829 14.1701,-10.8926 17.6961,-13.7995 3.526,-2.9068 6.8632,-4.7501 7.416,-4.0961 0.5529,0.654 3.2352,6.9444 5.9608,13.9786 11.452,29.5554 33.2919,60.9697 52.4465,75.4383 4.6378,3.5033 8.4324,6.9127 8.4324,7.5765 0,1.7756 -17.5286,-0.1433 -30.6666,-3.357 -12.7539,-3.1198 -27.2578,-9.114 -35.5736,-14.702 -3.0655,-2.0599 -5.9805,-3.7453 -6.4779,-3.7453 -3.0403,0 7.131,22.4441 17.1076,37.7495 7.6344,11.7123 19.6019,24.6672 27.9448,30.2505 8.6286,5.7746 7.5702,5.8522 -15.5593,1.1409 -16.244,-3.3088 -30.6562,-8.3425 -36.5368,-12.7609 -2.7357,-2.0556 -6.3392,-7.2237 -9.4273,-13.5204 -2.7494,-5.6061 -8.6143,-17.0929 -13.033,-25.5262 -4.4188,-8.4334 -8.3861,-16.7437 -8.8163,-18.4675 -0.4943,-1.9808 -1.365,-2.7739 -2.3662,-2.1552 -1.0903,0.6739 -1.3936,4.1442 -0.9729,11.1342 0.4735,7.8683 1.5251,11.9567 4.6696,18.1551 6.2631,12.3458 8.4726,20.2233 8.5939,30.6396 0.1366,11.731 -3.1834,20.1127 -11.2831,28.4856 -5.3802,5.5616 -20.0042,17.5415 -21.4132,17.5415 -0.3738,0 -5.6538,-4.0663 -11.7333,-9.0362 z"
         id="path5" /><path
         style="display:inline;fill:#f6f585;fill-opacity:1"
         d="m 459.89702,613.77785 c -0.016,-68.91857 -0.5542,-117.4577 -1.3651,-123.11117 -4.8972,-34.14286 -17.3744,-58.14743 -39.8996,-76.76163 -12.8224,-10.59612 -24.2503,-16.63614 -61.1232,-32.30569 l -11.081,-4.709 0.5128,93.55483 c 0.487,88.84586 0.6518,94.15886 3.2737,105.55486 3.4742,15.1005 7.0998,24.7049 13.0661,34.613 2.5786,4.2822 4.3156,8.1461 3.8599,8.5864 -1.7431,1.6845 -17.5732,-17.3116 -22.3063,-26.7676 -9.8938,-19.7665 -9.4794,-14.6125 -9.926,-123.44144 l -0.4009,-97.67626 -14.9586,-7.64302 c -8.2273,-4.20367 -15.4087,-7.84935 -15.9587,-8.10152 -1.5923,-0.73007 -1.2036,188.67538 0.4176,203.48294 3.6714,33.5327 13.8059,54.5767 36.7713,76.3546 10.2446,9.7148 24.815,21.1605 72.9907,57.3375 21.9155,16.4571 41.2655,31.0221 43,32.3666 l 3.1537,2.4445 z"
         id="path18" /><path
         style="display:inline;fill:#e6d600;fill-opacity:1"
         d="m 305.55763,570.24674 c 20.25973,45.23574 87.43745,84.24049 154.40886,119.33311 l -0.0431,37.9759 c -23.73874,-18.31341 -62.74645,-45.35511 -95.95423,-72.68051 -31.97054,-26.30732 -50.12841,-40.39261 -58.41153,-84.6285 z"
         id="path6"
         sodipodi:nodetypes="cccsc" /><path
         style="display:inline;fill:#e6d600;fill-opacity:1"
         d="m 319.60332,345.2523 c 81.26761,27.61381 149.15837,20.5398 149.15837,20.5398 l -0.1961,-86.71457 c 40.25745,49.29324 83.37884,54.08292 149.1462,66.32098 -45.78624,29.1718 -110.5499,57.81349 -149.1462,57.81349 -38.5963,0 -113.56621,-29.94286 -148.96227,-57.9597 z"
         id="path16"
         sodipodi:nodetypes="cccczc" /></g></g></svg>
